<svg width="268" height="64" viewBox="0 0 268 64" fill="none" xmlns="http://www.w3.org/2000/svg">
<path d="M6.88552 63.8234C4.6492 63.8234 2.94253 63.2349 1.76552 62.0579C0.588506 60.8809 0 59.2037 0 57.0262V25.6883C0 23.5108 0.559081 21.863 1.67724 20.7448C2.85425 19.5678 4.47264 18.9793 6.53241 18.9793C8.65103 18.9793 10.2694 19.5678 11.3876 20.7448C12.5057 21.863 13.0648 23.5108 13.0648 25.6883V30.2786H12.1821C12.8883 26.7476 14.4478 24.011 16.8607 22.069C19.2736 20.1269 22.3926 19.0382 26.2179 18.8028C27.6892 18.6851 28.8074 19.0676 29.5724 19.9503C30.3963 20.7743 30.8377 22.1572 30.8966 24.0993C31.0143 25.9237 30.6317 27.3655 29.749 28.4248C28.9251 29.4841 27.5126 30.1315 25.5117 30.3669L23.4814 30.5434C20.1269 30.8377 17.6257 31.8087 15.9779 33.4566C14.389 35.1044 13.5945 37.4878 13.5945 40.6069V57.0262C13.5945 59.2037 13.006 60.8809 11.829 62.0579C10.7108 63.2349 9.06299 63.8234 6.88552 63.8234Z" fill="#0303B0"/>
<path d="M56.4365 64C51.7874 64 47.7267 63.0878 44.2545 61.2635C40.8411 59.4391 38.1929 56.8202 36.3097 53.4069C34.4264 49.9936 33.4848 45.9623 33.4848 41.3131C33.4848 37.8409 34.0145 34.7218 35.0738 31.9559C36.1331 29.1899 37.6632 26.8359 39.6641 24.8938C41.7239 22.8929 44.1662 21.3922 46.991 20.3917C49.8159 19.3324 52.9644 18.8028 56.4365 18.8028C61.0857 18.8028 65.117 19.7149 68.5303 21.5393C72.0025 23.3637 74.6802 25.9531 76.5634 29.3076C78.5055 32.6621 79.4765 36.6639 79.4765 41.3131C79.4765 44.8441 78.9175 47.9926 77.7993 50.7586C76.74 53.5246 75.2099 55.908 73.209 57.909C71.208 59.9099 68.7657 61.44 65.8821 62.4993C63.0572 63.4998 59.9087 64 56.4365 64ZM56.4365 54.0248C58.3786 54.0248 60.0559 53.554 61.4683 52.6124C62.8807 51.6708 63.9988 50.2878 64.8228 48.4634C65.6467 46.5802 66.0586 44.1968 66.0586 41.3131C66.0586 37.017 65.1759 33.8685 63.4103 31.8676C61.6448 29.8078 59.3202 28.7779 56.4365 28.7779C54.5533 28.7779 52.8761 29.2193 51.4048 30.1021C49.9924 30.9848 48.8742 32.3678 48.0503 34.251C47.2853 36.0754 46.9028 38.4294 46.9028 41.3131C46.9028 45.6092 47.7855 48.8166 49.551 50.9352C51.3165 52.9949 53.6117 54.0248 56.4365 54.0248Z" fill="#0303B0"/>
<path d="M114.334 64C110.862 64 107.772 63.1467 105.065 61.44C102.417 59.6745 100.651 57.3499 99.7683 54.4662L100.739 51.5531V57.0262C100.739 59.2037 100.18 60.8809 99.0621 62.0579C97.9439 63.2349 96.3255 63.8234 94.2069 63.8234C92.0883 63.8234 90.4405 63.2349 89.2635 62.0579C88.1453 60.8809 87.5862 59.2037 87.5862 57.0262V6.79724C87.5862 4.56092 88.1453 2.88368 89.2635 1.76552C90.4405 0.588507 92.1177 0 94.2952 0C96.4138 0 98.0322 0.588507 99.1503 1.76552C100.327 2.88368 100.916 4.56092 100.916 6.79724V27.7186H99.8566C100.798 25.0703 102.593 22.9223 105.241 21.2745C107.89 19.6267 110.92 18.8028 114.334 18.8028C118.159 18.8028 121.484 19.7149 124.309 21.5393C127.134 23.3637 129.341 25.9531 130.93 29.3076C132.519 32.6621 133.313 36.6639 133.313 41.3131C133.313 45.9623 132.519 49.9936 130.93 53.4069C129.341 56.8202 127.104 59.4391 124.221 61.2635C121.396 63.0878 118.1 64 114.334 64ZM110.361 54.0248C112.245 54.0248 113.892 53.554 115.305 52.6124C116.776 51.6708 117.894 50.2878 118.659 48.4634C119.483 46.5802 119.895 44.1968 119.895 41.3131C119.895 37.017 119.012 33.8685 117.247 31.8676C115.481 29.8078 113.186 28.7779 110.361 28.7779C108.478 28.7779 106.801 29.2193 105.33 30.1021C103.917 30.9848 102.799 32.3678 101.975 34.251C101.151 36.0754 100.739 38.4294 100.739 41.3131C100.739 45.6092 101.622 48.8166 103.388 50.9352C105.153 52.9949 107.478 54.0248 110.361 54.0248Z" fill="#0303B0"/>
<path d="M162.299 64C157.649 64 153.589 63.0878 150.117 61.2635C146.703 59.4391 144.055 56.8202 142.172 53.4069C140.288 49.9936 139.347 45.9623 139.347 41.3131C139.347 37.8409 139.877 34.7218 140.936 31.9559C141.995 29.1899 143.525 26.8359 145.526 24.8938C147.586 22.8929 150.028 21.3922 152.853 20.3917C155.678 19.3324 158.826 18.8028 162.299 18.8028C166.948 18.8028 170.979 19.7149 174.392 21.5393C177.865 23.3637 180.542 25.9531 182.426 29.3076C184.368 32.6621 185.339 36.6639 185.339 41.3131C185.339 44.8441 184.78 47.9926 183.661 50.7586C182.602 53.5246 181.072 55.908 179.071 57.909C177.07 59.9099 174.628 61.44 171.744 62.4993C168.919 63.4998 165.771 64 162.299 64ZM162.299 54.0248C164.241 54.0248 165.918 53.554 167.33 52.6124C168.743 51.6708 169.861 50.2878 170.685 48.4634C171.509 46.5802 171.921 44.1968 171.921 41.3131C171.921 37.017 171.038 33.8685 169.272 31.8676C167.507 29.8078 165.182 28.7779 162.299 28.7779C160.415 28.7779 158.738 29.2193 157.267 30.1021C155.854 30.9848 154.736 32.3678 153.912 34.251C153.147 36.0754 152.765 38.4294 152.765 41.3131C152.765 45.6092 153.648 48.8166 155.413 50.9352C157.179 52.9949 159.474 54.0248 162.299 54.0248Z" fill="#0303B0"/>
<path d="M214.292 64C210.231 64 206.818 63.3232 204.052 61.9697C201.345 60.6161 199.314 58.6446 197.961 56.0552C196.666 53.4657 196.019 50.1995 196.019 46.2566V29.6607H192.311C190.663 29.6607 189.368 29.2193 188.427 28.3366C187.544 27.4538 187.103 26.2474 187.103 24.7172C187.103 23.0694 187.544 21.8336 188.427 21.0097C189.368 20.1269 190.663 19.6855 192.311 19.6855H196.019V12.9766C196.019 10.7402 196.607 9.06299 197.784 7.94483C198.961 6.76782 200.609 6.17931 202.728 6.17931C204.905 6.17931 206.553 6.76782 207.671 7.94483C208.789 9.06299 209.348 10.7402 209.348 12.9766V19.6855H217.734C219.382 19.6855 220.648 20.1269 221.53 21.0097C222.413 21.8336 222.854 23.0694 222.854 24.7172C222.854 26.2474 222.413 27.4538 221.53 28.3366C220.648 29.2193 219.382 29.6607 217.734 29.6607H209.348V45.7269C209.348 48.1986 209.907 50.0524 211.025 51.2883C212.203 52.5241 214.056 53.1421 216.587 53.1421C217.47 53.1421 218.294 53.0538 219.059 52.8772C219.824 52.7007 220.53 52.583 221.177 52.5241C222.001 52.4653 222.678 52.7301 223.208 53.3186C223.737 53.8483 224.002 55.0547 224.002 56.9379C224.002 58.3503 223.767 59.5862 223.296 60.6455C222.825 61.7048 222.001 62.4699 220.824 62.9407C220.059 63.2349 219 63.4703 217.646 63.6469C216.351 63.8823 215.233 64 214.292 64Z" fill="#0303B0"/>
<path d="M243.361 64C240.183 64 237.328 63.3821 234.798 62.1462C232.267 60.9103 230.296 59.2331 228.883 57.1145C227.471 54.9959 226.765 52.6124 226.765 49.9641C226.765 46.7862 227.589 44.2851 229.237 42.4607C230.884 40.5775 233.562 39.2533 237.27 38.4883C240.977 37.6644 245.891 37.2524 252.012 37.2524H256.69V44.1379H252.1C249.099 44.1379 246.656 44.3145 244.773 44.6676C242.949 44.9618 241.625 45.4915 240.801 46.2566C240.036 47.0216 239.653 48.0809 239.653 49.4345C239.653 51.0823 240.212 52.4359 241.33 53.4952C242.507 54.5545 244.185 55.0841 246.362 55.0841C248.069 55.0841 249.569 54.7016 250.864 53.9366C252.218 53.1126 253.277 52.0239 254.042 50.6703C254.807 49.2579 255.19 47.669 255.19 45.9035V35.7517C255.19 33.1623 254.601 31.3379 253.424 30.2786C252.247 29.1605 250.246 28.6014 247.421 28.6014C245.832 28.6014 244.096 28.8074 242.213 29.2193C240.389 29.5724 238.358 30.1903 236.122 31.0731C234.827 31.6616 233.68 31.8087 232.679 31.5145C231.679 31.1614 230.914 30.5729 230.384 29.749C229.854 28.8662 229.59 27.9246 229.59 26.9241C229.59 25.8648 229.884 24.8644 230.472 23.9228C231.061 22.9223 232.032 22.1867 233.385 21.7159C236.151 20.5977 238.741 19.8326 241.154 19.4207C243.626 19.0087 245.891 18.8028 247.951 18.8028C252.482 18.8028 256.19 19.4795 259.074 20.8331C262.016 22.1278 264.223 24.1582 265.694 26.9241C267.166 29.6313 267.901 33.1329 267.901 37.429V57.0262C267.901 59.2037 267.372 60.8809 266.312 62.0579C265.253 63.2349 263.723 63.8234 261.722 63.8234C259.721 63.8234 258.162 63.2349 257.043 62.0579C255.984 60.8809 255.454 59.2037 255.454 57.0262V53.76L256.072 54.2897C255.719 56.2906 254.954 58.0267 253.777 59.4979C252.659 60.9103 251.217 62.0285 249.452 62.8524C247.686 63.6175 245.656 64 243.361 64Z" fill="#0303B0"/>
</svg>
